<svg xmlns="http://www.w3.org/2000/svg" enable-background="new 0 0 70 70" viewBox="0 0 70 70"><path fill="#3B4652" d="M7.367022 65.2498245c0 1.1266937.6824756 2.0951843 1.6546006 2.5196533.0090961.0039597.0168924.0102615.0260534.0140991.0274191.0116272.0581512.0159836.0860243.0267639C9.4410219 67.9284668 9.7716694 68 10.1203136 68h38.8512039c1.5162048 0 2.7501717-1.233963 2.7501717-2.7501755v-7.8061028H7.367022V65.2498245zM29.5440941 59.3508072c1.8587456 0 3.371315 1.5120506 3.371315 3.3707924 0 1.8587456-1.5125694 3.3713188-3.371315 3.3713188-1.8587437 0-3.3707943-1.5125732-3.3707943-3.3713188C26.1732998 60.8628578 27.6853504 59.3508072 29.5440941 59.3508072zM51.7216873 4.7501731C51.7216873 3.2339654 50.4877205 2 48.9715157 2H10.1203136C9.7716694 2 9.4410219 2.0715351 9.1337004 2.189656c-.027873.0107853-.0586052.0151386-.0860243.0267687-.009161.0038335-.0169573.0101359-.0260534.0140991C8.0494976 2.6549919 7.367022 3.6234782 7.367022 4.7501731v4.3464274h44.3546638V4.7501731zM33.2699013 6.6130767h-7.4516125c-.5878754 0-1.0645161-.4766417-1.0645161-1.0645165s.4766407-1.0645161 1.0645161-1.0645161h7.4516125c.5878754 0 1.064518.4766412 1.064518 1.0645161S33.8577766 6.6130767 33.2699013 6.6130767z"/><path fill="#2B79C2" d="M37.7481194,21.5299683v12.4400024C37.7481194,35.6400146,39.1081657,37,40.7781487,37h0.960022v2.9199829
		c0,0.4000244,0.2399902,0.7800293,0.5999756,0.9500122c0.1500244,0.0800171,0.3099976,0.1099854,0.4699707,0.1099854
		c0.2300415,0,0.460022-0.0700073,0.6500244-0.2199707L48.2981682,37h3.4199829v18.3099976H7.3681149V11.2299805h44.3500366V18.5
		H40.7781487C39.1081657,18.5,37.7481194,19.8599854,37.7481194,21.5299683z"/><path fill="#3B4652" d="M61.732193,20.6290321H40.7797318c-0.4969139,0-0.9007874,0.4038715-0.9007874,0.9007854v12.4415302
		c0,0.4969139,0.4038734,0.9007874,0.9007874,0.9007874h2.0266342c0.5878754,0,1.0645142,0.4766388,1.0645142,1.0645142v1.8062477
		l3.4051018-2.6467361c0.1871223-0.1450195,0.4168663-0.2240257,0.6533661-0.2240257h13.802845
		c0.4969139,0,0.9007835-0.4038734,0.9007835-0.9007874V21.5298176
		C62.6329765,21.0329037,62.2291069,20.6290321,61.732193,20.6290321z M59.0844193,31.4020596H44.1811905
		c-0.5878754,0-1.0645142-0.4766407-1.0645142-1.0645161c0-0.5878735,0.4766388-1.0645161,1.0645142-1.0645161h14.9032288
		c0.5878716,0,1.0645142,0.4766426,1.0645142,1.0645161C60.1489334,30.9254189,59.6722908,31.4020596,59.0844193,31.4020596z
		 M59.0844193,25.7743664H44.1811905c-0.5878754,0-1.0645142-0.4766407-1.0645142-1.0645161
		s0.4766388-1.0645161,1.0645142-1.0645161h14.9032288c0.5878716,0,1.0645142,0.4766407,1.0645142,1.0645161
		S59.6722908,25.7743664,59.0844193,25.7743664z"/></svg>